<svg viewBox="0 0 24 24" fill="none" xmlns="http://www.w3.org/2000/svg">
<path d="M19 9C19 7.14348 18.2625 5.36301 16.9497 4.05025C15.637 2.7375 13.8565 2 12 2C10.1435 2 8.36301 2.7375 7.05025 4.05025C5.7375 5.36301 5 7.14348 5 9C5 9.26522 5.10536 9.51957 5.29289 9.70711C5.48043 9.89464 5.73478 10 6 10C6.26522 10 6.51957 9.89464 6.70711 9.70711C6.89464 9.51957 7 9.26522 7 9C7 8.01109 7.29324 7.04439 7.84265 6.22215C8.39206 5.3999 9.17295 4.75904 10.0866 4.3806C11.0002 4.00216 12.0055 3.90315 12.9755 4.09607C13.9454 4.289 14.8363 4.7652 15.5355 5.46447C16.2348 6.16373 16.711 7.05464 16.9039 8.02455C17.0969 8.99445 16.9978 9.99979 16.6194 10.9134C16.241 11.827 15.6001 12.6079 14.7779 13.1573C13.9556 13.7068 12.9889 14 12 14C11.7348 14 11.4804 14.1054 11.2929 14.2929C11.1054 14.4804 11 14.7348 11 15V17H10C9.73478 17 9.48043 17.1054 9.29289 17.2929C9.10536 17.4804 9 17.7348 9 18C9 18.2652 9.10536 18.5196 9.29289 18.7071C9.48043 18.8946 9.73478 19 10 19H11V21C11 21.2652 11.1054 21.5196 11.2929 21.7071C11.4804 21.8946 11.7348 22 12 22C12.2652 22 12.5196 21.8946 12.7071 21.7071C12.8946 21.5196 13 21.2652 13 21V19H14C14.2652 19 14.5196 18.8946 14.7071 18.7071C14.8946 18.5196 15 18.2652 15 18C15 17.7348 14.8946 17.4804 14.7071 17.2929C14.5196 17.1054 14.2652 17 14 17H13V15.92C14.6646 15.6797 16.187 14.8482 17.2888 13.5775C18.3906 12.3068 18.998 10.6818 19 9Z" fill="currentColor"/>
</svg>
